<?xml version="1.0" encoding="utf-8"?>
<!-- Generator: Adobe Illustrator 16.0.0, SVG Export Plug-In . SVG Version: 6.00 Build 0)  -->
<!DOCTYPE svg PUBLIC "-//W3C//DTD SVG 1.1//EN" "http://www.w3.org/Graphics/SVG/1.1/DTD/svg11.dtd">
<svg version="1.1" id="Layer_1" xmlns="http://www.w3.org/2000/svg" xmlns:xlink="http://www.w3.org/1999/xlink" x="0px" y="0px"
	 width="74px" height="81px" viewBox="0 0 74 81" enable-background="new 0 0 74 81" xml:space="preserve">
<rect x="-168.5" y="-78.5" display="none" stroke="#000000" stroke-miterlimit="10" width="430" height="350"/>
<g display="none">
	
		<circle display="inline" fill="none" stroke="#FFFFFF" stroke-width="1.0622" stroke-miterlimit="10" cx="37.609" cy="41.567" r="23.515"/>
	<path display="inline" fill="none" stroke="#FFFFFF" stroke-width="1.0622" stroke-miterlimit="10" d="M21.03,17.253
		c-1.146,0.229-3.441,2.523-3.441,2.523"/>
	<path display="inline" fill="none" stroke="#FFFFFF" stroke-width="1.0622" stroke-miterlimit="10" d="M33.188,12.206
		c0,0,12.979-1.09,17.978,2.845"/>
	<line display="inline" fill="none" stroke="#FFFFFF" stroke-miterlimit="10" x1="58.5" y1="15" x2="58.5" y2="17"/>
	<line display="inline" fill="none" stroke="#FFFFFF" stroke-miterlimit="10" x1="60" y1="18.5" x2="62" y2="18.5"/>
	<line display="inline" fill="none" stroke="#FFFFFF" stroke-miterlimit="10" x1="57" y1="18.5" x2="55" y2="18.5"/>
	<line display="inline" fill="none" stroke="#FFFFFF" stroke-miterlimit="10" x1="58.5" y1="20" x2="58.5" y2="22"/>
	
		<ellipse display="inline" fill="none" stroke="#FFFFFF" stroke-width="0.604" stroke-miterlimit="10" cx="63.702" cy="30.902" rx="1.607" ry="1.721"/>
	<path display="inline" fill="none" stroke="#FFFFFF" stroke-width="0.604" stroke-miterlimit="10" d="M65.536,42.717
		c0,0,0.229-6.882-0.459-6.653"/>
	<path display="inline" fill="none" stroke="#FFFFFF" stroke-width="0.604" stroke-miterlimit="10" d="M64.389,49.6
		c0,0-2.753,9.865-10.782,15.141"/>
	<path display="inline" fill="none" stroke="#FFFFFF" stroke-width="0.604" stroke-miterlimit="10" d="M48.56,67.723
		c0,0-1.605,0.917-2.753,1.147"/>
	<path display="inline" fill="none" stroke="#FFFFFF" stroke-width="0.604" stroke-miterlimit="10" d="M37.318,70.247
		c0,0-9.177,0-14.453-3.67"/>
	<path display="inline" fill="none" stroke="#FFFFFF" stroke-width="0.604" stroke-miterlimit="10" d="M18.736,64.052
		c0,0-3.212-3.899-3.9-4.588"/>
	<line display="inline" fill="none" stroke="#FFFFFF" stroke-miterlimit="10" x1="8.5" y1="41" x2="8.5" y2="43"/>
	<line display="inline" fill="none" stroke="#FFFFFF" stroke-miterlimit="10" x1="10" y1="44.5" x2="12" y2="44.5"/>
	<line display="inline" fill="none" stroke="#FFFFFF" stroke-miterlimit="10" x1="7" y1="44.5" x2="5" y2="44.5"/>
	<line display="inline" fill="none" stroke="#FFFFFF" stroke-miterlimit="10" x1="8.5" y1="46" x2="8.5" y2="48"/>
	
		<ellipse display="inline" fill="none" stroke="#FFFFFF" stroke-width="0.604" stroke-miterlimit="10" cx="11.702" cy="55.902" rx="1.607" ry="1.721"/>
	<path display="inline" fill="none" stroke="#FFFFFF" stroke-miterlimit="10" d="M8.412,38.588c0,0,2.065-11.929,4.359-13.076"/>
</g>
<g display="none">
	<rect x="25.5" y="43.5" display="inline" fill="none" stroke="#FFFFFF" stroke-miterlimit="10" width="3" height="6"/>
	<rect x="30.5" y="41.5" display="inline" fill="none" stroke="#FFFFFF" stroke-miterlimit="10" width="3" height="8"/>
	<rect x="35.5" y="38.5" display="inline" fill="none" stroke="#FFFFFF" stroke-miterlimit="10" width="3" height="11"/>
	<rect x="40.5" y="40.5" display="inline" fill="none" stroke="#FFFFFF" stroke-miterlimit="10" width="3" height="9"/>
	<rect x="45.5" y="33.5" display="inline" fill="none" stroke="#FFFFFF" stroke-miterlimit="10" width="3" height="16"/>
	<circle display="inline" fill="#FFFFFF" cx="27.542" cy="37.658" r="0.906"/>
	<circle display="inline" fill="#FFFFFF" cx="32.542" cy="35.658" r="0.906"/>
	<circle display="inline" fill="#FFFFFF" cx="37.542" cy="31.658" r="0.906"/>
	<circle display="inline" fill="#FFFFFF" cx="42.542" cy="34.658" r="0.906"/>
	<circle display="inline" fill="#FFFFFF" cx="46.542" cy="27.658" r="0.906"/>
	<polyline display="inline" fill="none" stroke="#FFFFFF" stroke-miterlimit="10" points="28.138,37.523 32.541,35.658 
		37.351,31.74 42.541,34.658 46.541,27.658 	"/>
</g>
<g display="none">
	
		<circle display="inline" fill="none" stroke="#FFFFFF" stroke-width="1.0622" stroke-miterlimit="10" cx="37.609" cy="41.567" r="23.515"/>
	<path display="inline" fill="none" stroke="#FFFFFF" stroke-miterlimit="10" d="M21.423,16.973
		c-1.018,0.576-3.834,2.804-3.834,2.804"/>
	<path display="inline" fill="none" stroke="#FFFFFF" stroke-miterlimit="10" d="M33.167,12.5c0,0,10.834-1.508,17.938,3.729"/>
	<line display="inline" fill="none" stroke="#FFFFFF" stroke-miterlimit="10" x1="57.5" y1="16" x2="57.5" y2="18"/>
	<line display="inline" fill="none" stroke="#FFFFFF" stroke-miterlimit="10" x1="59" y1="19.5" x2="61" y2="19.5"/>
	<line display="inline" fill="none" stroke="#FFFFFF" stroke-miterlimit="10" x1="56" y1="19.5" x2="54" y2="19.5"/>
	<line display="inline" fill="none" stroke="#FFFFFF" stroke-miterlimit="10" x1="57.5" y1="21" x2="57.5" y2="23"/>
	
		<ellipse display="inline" fill="none" stroke="#FFFFFF" stroke-width="0.604" stroke-miterlimit="10" cx="63.702" cy="29.902" rx="1.607" ry="1.721"/>
	<path display="inline" fill="none" stroke="#FFFFFF" stroke-miterlimit="10" d="M66.536,42.717c0,0-0.38-6.608-0.459-6.653"/>
	<path display="inline" fill="none" stroke="#FFFFFF" stroke-miterlimit="10" d="M64.389,49.6c0,0-2.753,9.865-10.782,15.141"/>
	<path display="inline" fill="none" stroke="#FFFFFF" stroke-miterlimit="10" d="M48.56,67.723c0,0-1.605,0.917-2.753,1.147"/>
	<path display="inline" fill="none" stroke="#FFFFFF" stroke-miterlimit="10" d="M37.318,70.247c0,0-9.177,0-14.453-3.67"/>
	<path display="inline" fill="none" stroke="#FFFFFF" stroke-miterlimit="10" d="M19.25,63.875c0,0-3.726-3.722-4.414-4.411"/>
	<line display="inline" fill="none" stroke="#FFFFFF" stroke-miterlimit="10" x1="8.5" y1="41" x2="8.5" y2="43"/>
	<line display="inline" fill="none" stroke="#FFFFFF" stroke-miterlimit="10" x1="10" y1="44.5" x2="12" y2="44.5"/>
	<line display="inline" fill="none" stroke="#FFFFFF" stroke-miterlimit="10" x1="7" y1="44.5" x2="5" y2="44.5"/>
	<line display="inline" fill="none" stroke="#FFFFFF" stroke-miterlimit="10" x1="8.5" y1="46" x2="8.5" y2="48"/>
	
		<ellipse display="inline" fill="none" stroke="#FFFFFF" stroke-width="0.604" stroke-miterlimit="10" cx="11.702" cy="55.902" rx="1.607" ry="1.721"/>
	<path display="inline" fill="none" stroke="#FFFFFF" stroke-miterlimit="10" d="M8.446,38.517
		c0.423-5.177,1.322-8.619,4.325-13.005"/>
</g>
<g display="none">
	<rect x="98.5" y="41.5" display="inline" fill="none" stroke="#FFFFFF" stroke-miterlimit="10" width="3" height="6"/>
	<rect x="103.5" y="39.5" display="inline" fill="none" stroke="#FFFFFF" stroke-miterlimit="10" width="3" height="8"/>
	<rect x="108.5" y="36.5" display="inline" fill="none" stroke="#FFFFFF" stroke-miterlimit="10" width="3" height="11"/>
	<rect x="113.5" y="38.5" display="inline" fill="none" stroke="#FFFFFF" stroke-miterlimit="10" width="3" height="9"/>
	<rect x="118.5" y="31.5" display="inline" fill="none" stroke="#FFFFFF" stroke-miterlimit="10" width="3" height="16"/>
	<circle display="inline" fill="#FFFFFF" cx="100.542" cy="35.658" r="0.906"/>
	<circle display="inline" fill="#FFFFFF" cx="105.542" cy="33.658" r="0.906"/>
	<circle display="inline" fill="#FFFFFF" cx="110.542" cy="29.658" r="0.906"/>
	<circle display="inline" fill="#FFFFFF" cx="115.542" cy="32.658" r="0.906"/>
	<circle display="inline" fill="#FFFFFF" cx="119.542" cy="25.658" r="0.906"/>
	<polyline display="inline" fill="none" stroke="#FFFFFF" stroke-miterlimit="10" points="101.138,35.523 105.541,33.658 
		110.351,29.74 115.541,32.658 119.541,25.658 	"/>
</g>
<g display="none">
	<line display="inline" fill="none" stroke="#FFFFFF" stroke-miterlimit="10" x1="27.989" y1="33.176" x2="39.539" y2="33.221"/>
	<line display="inline" fill="none" stroke="#FFFFFF" stroke-miterlimit="10" x1="27.898" y1="36.527" x2="39.539" y2="36.482"/>
	<line display="inline" fill="none" stroke="#FFFFFF" stroke-miterlimit="10" x1="27.944" y1="39.879" x2="36.143" y2="39.924"/>
	<path display="inline" fill="none" stroke="#FFFFFF" stroke-miterlimit="10" d="M32.646,48.786c0,0,1.109,5.071,12.123,4.635
		c0,0,4.148,3.495,7.731,1.662c0,0-3.083-2.25-3.25-2.833c0,0,4.167-3,3-7.583s-5.084-5.083-5.084-5.083"/>
	<line display="inline" fill="none" stroke="#FFFFFF" stroke-miterlimit="10" x1="44" y1="43.5" x2="47" y2="43.5"/>
	<line display="inline" fill="none" stroke="#FFFFFF" stroke-miterlimit="10" x1="40" y1="47.5" x2="47" y2="47.5"/>
	<path display="inline" fill="none" stroke="#FFFFFF" stroke-width="0.9515" stroke-miterlimit="10" d="M31.193,46.405l-0.149-0.074
		c-5.052,3.983-8.354,1.797-8.354,1.797c2.768-1.506,3.335-4.346,3.335-4.346l-0.24-0.223c-1.951-1.757-2.917-3.924-2.917-6.563
		c0-5.391,5.01-9.761,11.19-9.761c6.179,0,11.188,4.37,11.188,9.761c0,5.391-5.01,9.761-11.188,9.761
		c-1.067,0-1.907-0.093-2.885-0.336"/>
</g>
<g display="none">
	<rect x="25.603" y="30.05" display="inline" fill="none" stroke="#FFFFFF" width="7.41" height="7.409"/>
	<rect x="28.054" y="32.501" display="inline" fill="none" stroke="#FFFFFF" width="2.508" height="2.508"/>
	<rect x="25.603" y="46.541" display="inline" fill="none" stroke="#FFFFFF" width="7.41" height="7.409"/>
	<rect x="28.054" y="48.991" display="inline" fill="none" stroke="#FFFFFF" width="2.508" height="2.508"/>
	<rect x="42.207" y="30.05" display="inline" fill="none" stroke="#FFFFFF" width="7.409" height="7.409"/>
	<rect x="44.658" y="32.501" display="inline" fill="none" stroke="#FFFFFF" width="2.508" height="2.508"/>
	<polygon display="inline" fill="none" stroke="#FFFFFF" points="44.658,49.201 44.658,39.392 29.937,39.392 29.937,44.328 
		27.469,44.328 27.469,42.33 32.705,42.33 32.705,44.328 35.112,44.328 35.112,36.625 39.987,36.625 39.987,33.621 35.451,33.621 
		35.451,31.269 37.7,31.269 37.7,41.982 41.909,41.982 41.909,43.685 47.242,43.685 47.242,42.152 49.403,42.152 49.403,46.541 
		40.164,46.541 40.164,51.576 37.566,51.576 37.566,49.201 	"/>
	<polyline display="inline" fill="none" stroke="#FFFFFF" points="44.658,48.527 44.658,53.95 49.616,53.95 49.616,49.182 
		43.118,49.201 	"/>
</g>
<g display="none">
	
		<line display="inline" fill="none" stroke="#FFFFFF" stroke-linecap="round" stroke-linejoin="round" x1="28.103" y1="30.317" x2="45.103" y2="30.317"/>
	
		<line display="inline" fill="none" stroke="#FFFFFF" stroke-linecap="round" stroke-linejoin="round" x1="28.103" y1="52.318" x2="45.103" y2="52.318"/>
	<path display="inline" fill="#FFFFFF" d="M37.603,54.818c0,0.552-0.448,1-1,1s-1-0.448-1-1c0-0.553,0.448-1,1-1
		S37.603,54.266,37.603,54.818"/>
	
		<line display="inline" fill="none" stroke="#FFFFFF" stroke-linecap="round" stroke-linejoin="round" x1="38.001" y1="48.13" x2="38.001" y2="49.13"/>
	
		<line display="inline" fill="none" stroke="#FFFFFF" stroke-linecap="round" stroke-linejoin="round" x1="35.548" y1="48.13" x2="35.548" y2="49.13"/>
	
		<line display="inline" fill="none" stroke="#FFFFFF" stroke-linecap="round" stroke-linejoin="round" x1="33.094" y1="48.13" x2="33.094" y2="49.13"/>
	
		<line display="inline" fill="none" stroke="#FFFFFF" stroke-linecap="round" stroke-linejoin="round" x1="30.64" y1="48.13" x2="30.64" y2="49.13"/>
	
		<line display="inline" fill="none" stroke="#FFFFFF" stroke-linecap="round" stroke-linejoin="round" x1="40.456" y1="48.13" x2="40.456" y2="49.13"/>
	<path display="inline" fill="none" stroke="#FFFFFF" stroke-linecap="round" stroke-linejoin="round" d="M42.421,46.176h-2.085
		c-0.743,0-1.345-0.603-1.345-1.345V34.62c0-0.742,0.602-1.346,1.345-1.346H52.26c0.743,0,1.347,0.604,1.347,1.346v10.211
		c0,0.742-0.604,1.345-1.347,1.345H46.53l-0.099,0.069c-0.764,3.099-4.296,3.521-4.296,3.521c0.842-0.404,0.469-3.521,0.469-3.521
		L42.421,46.176z"/>
	
		<line display="inline" fill="none" stroke="#FFFFFF" stroke-linecap="round" stroke-linejoin="round" x1="33.611" y1="28.362" x2="35.062" y2="28.362"/>
	
		<line display="inline" fill="none" stroke="#FFFFFF" stroke-linecap="round" stroke-linejoin="round" x1="36.892" y1="28.362" x2="38.815" y2="28.362"/>
	<path display="inline" fill="none" stroke="#FFFFFF" stroke-linecap="round" stroke-linejoin="round" d="M42.765,41.45l1.055-2.453
		V37.53c0-1.321,1.07-2.391,2.391-2.391s2.39,1.069,2.39,2.391v1.467l1.056,2.453c0.121,0.283-0.086,0.6-0.395,0.6h-6.102
		C42.851,42.05,42.643,41.733,42.765,41.45z"/>
	<path display="inline" fill="#FFFFFF" d="M47.028,42.767c0,0.451-0.367,0.818-0.818,0.818c-0.452,0-0.819-0.367-0.819-0.818
		c0-0.453,0.367-0.819,0.819-0.819C46.661,41.947,47.028,42.313,47.028,42.767"/>
	
		<line display="inline" fill="none" stroke="#FFFFFF" stroke-linecap="round" stroke-linejoin="round" x1="43.819" y1="38.997" x2="46.762" y2="38.997"/>
	<path display="inline" fill="none" stroke="#FFFFFF" stroke-linecap="round" stroke-linejoin="round" d="M45.103,33.274V29.84
		c0-1.944-1.577-3.522-3.521-3.522h-9.957c-1.944,0-3.521,1.578-3.521,3.522v23.456c0,1.945,1.577,3.521,3.521,3.521h9.957
		c1.944,0,3.521-1.576,3.521-3.521V48.43"/>
</g>
<g>
	<path fill="none" stroke="#FFFFFF" stroke-miterlimit="10" d="M49.001,41.333c0,0,0.416-3.833,0-8.25s-5.25-3.75-5.25-3.75
		c-6.5-9.833-19.25,3.417-19.25,3.417s2.98,0.232,2.398,8.961"/>
	<path fill="none" stroke="#FFFFFF" stroke-linecap="round" stroke-linejoin="round" stroke-miterlimit="10" d="M45.167,52.75
		c-1.667,2.167-5.75,3.583-5.75,3.583c-2.25,0.917-2.666-0.083-2.666-0.083c-6.833-0.083-8.25-8.917-8.25-8.917
		c-1.916,0.083-2.167-1.417-2.167-1.417c-1.417-5.167,2.167-3.25,2.167-3.25c-0.833-1.167,1.333-7.167,6.75-6.917
		s8.166-2.5,8.166-2.5s3.706,1.478,3.924,6.497c0,0,0.582,9.167-0.728,10.767"/>
	<ellipse fill="none" stroke="#FFFFFF" cx="38.065" cy="52.477" rx="1.419" ry="1.164"/>
	<path fill="none" stroke="#FFFFFF" d="M40,52.5h7c0,0,2.595-0.023,2.522-4.679"/>
	<path fill="none" stroke="#FFFFFF" stroke-miterlimit="10" d="M47.064,41.464c0,0,3.436-0.626,3.436,2.284V45
		c0,0,0.372,2.675-3.03,2.094"/>
	<circle fill="#FFFFFF" cx="33.411" cy="44.075" r="0.91"/>
	<circle fill="#FFFFFF" cx="42.411" cy="44.075" r="0.91"/>
</g>
</svg>
